# xmcd
#
# Track frame offsets:
#	150
#	20545
#	35515
#	50612
#	65550
#	73385
#	92040
#	111525
#	128412
#	144022
#	161890
#	183287
#	204735
#	220042
#
# Disc length: 3171 seconds
#
# Revision: 1
# Processed by: cddbd v1.4PL0 Copyright (c) Steve Scherf et al.
# Submitted via: CDmax 1.8
#
DISCID=d10c610e
DTITLE=Chuck E. Weiss - Old Souls and Wolf Tickets
DYEAR=1900
DGENRE=Blues
TTITLE0=Congo Square at Midnight
TTITLE1=Tony Did the Boogie Woogie
TTITLE2=It Don't Happen Overnight
TTITLE3=Sweetie-O
TTITLE4=Piggly Wiggly
TTITLE5=Two-Tone Car (An Auto-Body Experience)
TTITLE6=An Anthem for Old Souls
TTITLE7=Sneaky Jesus
TTITLE8=Down the Road a Piece
TTITLE9=No Hep Cats
TTITLE10=Jolie's Nightmare (Mr. House Dick)
TTITLE11=Blood Alley
TTITLE12=G-d Damn Liars
TTITLE13=Dixieland Funeral
EXTD=
EXTT0=
EXTT1=
EXTT2=
EXTT3=
EXTT4=
EXTT5=
EXTT6=
EXTT7=
EXTT8=
EXTT9=
EXTT10=
EXTT11=
EXTT12=
EXTT13=
PLAYORDER=
